<?xml version="1.0" encoding="UTF-8" standalone="no"?>
<!-- Created with Inkscape (http://www.inkscape.org/) -->

<svg
   xmlns:dc="http://purl.org/dc/elements/1.1/"
   xmlns:cc="http://creativecommons.org/ns#"
   xmlns:rdf="http://www.w3.org/1999/02/22-rdf-syntax-ns#"
   xmlns:svg="http://www.w3.org/2000/svg"
   xmlns="http://www.w3.org/2000/svg"
   xmlns:sodipodi="http://sodipodi.sourceforge.net/DTD/sodipodi-0.dtd"
   xmlns:inkscape="http://www.inkscape.org/namespaces/inkscape"
   height="110.02554mm"
   width="254.47379mm"
   version="1.1"
   viewBox="0 0 901.679 389.85271"
   id="svg2"
   inkscape:version="0.91 r13725"
   sodipodi:docname="adskar_definitivo_negro.svg">
  <defs
     id="defs26" />
  <sodipodi:namedview
     pagecolor="#ffffff"
     bordercolor="#666666"
     borderopacity="1"
     objecttolerance="10"
     gridtolerance="10"
     guidetolerance="10"
     inkscape:pageopacity="0"
     inkscape:pageshadow="2"
     inkscape:window-width="1920"
     inkscape:window-height="1056"
     id="namedview24"
     showgrid="false"
     inkscape:zoom="1.2829738"
     inkscape:cx="427.95451"
     inkscape:cy="104.8008"
     inkscape:window-x="-8"
     inkscape:window-y="-8"
     inkscape:window-maximized="1"
     inkscape:current-layer="g10"
     fit-margin-top="0"
     fit-margin-left="0"
     fit-margin-right="0"
     fit-margin-bottom="0" />
  <title
     id="title4">AdrianSkar's logo for adrianskar.com</title>
  <metadata
     id="metadata6">
    <rdf:RDF>
      <cc:Work
         rdf:about="">
        <dc:format>image/svg+xml</dc:format>
        <dc:type
           rdf:resource="http://purl.org/dc/dcmitype/StillImage" />
        <dc:title>AdrianSkar's logo for adrianskar.com</dc:title>
        <dc:date>01 Dic 2015</dc:date>
        <dc:creator>
          <cc:Agent>
            <dc:title>@adrianskar</dc:title>
          </cc:Agent>
        </dc:creator>
        <dc:rights>
          <cc:Agent>
            <dc:title>Proprietary/All reserved</dc:title>
          </cc:Agent>
        </dc:rights>
        <dc:publisher>
          <cc:Agent>
            <dc:title>@adrianskar</dc:title>
          </cc:Agent>
        </dc:publisher>
        <dc:source />
        <dc:subject>
          <rdf:Bag>
            <rdf:li>adrianskar</rdf:li>
            <rdf:li>adrianskar.com</rdf:li>
          </rdf:Bag>
        </dc:subject>
        <dc:description>Original logo owned, created and edited by @adrianskar</dc:description>
        <dc:contributor>
          <cc:Agent>
            <dc:title>@adrianskar</dc:title>
          </cc:Agent>
        </dc:contributor>
      </cc:Work>
    </rdf:RDF>
  </metadata>
  <g
     transform="translate(185.1238,-166.0099)"
     id="g8">
    <g
       id="g10">
      <g
         transform="matrix(1.22341,-0.00456823,0.00627724,0.817367,0,0)"
         id="g12">
        <path
           id="path20"
           d="m 530.631,542.249 4.5,0 0,-29.43 22.05,0 20.52,29.43 5.22,0 -20.61,-29.79 c 10.08,-1.17 15.57,-7.65 15.57,-16.56 0,-9.9 -6.93,-16.65 -19.26,-16.65 l -27.99,0 0,63 z m 4.5,-33.57 0,-25.29 23.13,0 c 9.54,0 15.12,4.59 15.12,12.6 0,8.19 -5.58,12.69 -15.12,12.69 l -23.13,0 z m -77.863,33.57 4.68,0 8.28,-18.36 35.19,0 8.28,18.36 4.68,0 -28.44,-63.36 -4.14,0 -28.53,63.36 z m 14.58,-22.32 16.02,-35.19 15.93,35.19 -31.95,0 z m -65.846,22.32 4.5,0 0,-32.67 36.18,32.67 6.75,0 -37.89,-34.11 32.85,-28.89 -6.21,0 -31.68,27.72 0,-27.72 -4.5,0 0,63 z m -38.074,1.08 c 11.97,0 22.77,-6.03 22.77,-17.64 0,-11.97 -10.8,-15.48 -20.88,-18.36 -10.35,-2.97 -18.54,-5.13 -18.54,-13.41 0,-5.94 4.95,-11.43 16.65,-11.43 7.47,0 13.86,2.25 18.99,5.76 l 0,-4.77 c -5.04,-3.24 -11.61,-5.31 -19.17,-5.31 -13.95,0 -20.97,7.2 -20.97,15.66 0,11.07 8.91,14.13 20.52,17.46 10.26,2.88 18.81,5.13 18.81,14.4 0,8.28 -7.92,13.41 -18.54,13.41 -9.9,0 -18.54,-4.05 -22.68,-7.65 l 0,5.13 c 4.41,3.42 13.05,6.75 23.04,6.75 z"
           style="fill:#1a1a1a"
           inkscape:connector-curvature="0" />
      </g>
      <path
         d="m 99.0285,166.007 c -38.1309,1.0294 -35.6101,-0.6146 -43.3027,16.3457 -22.6742,66.6906 -49.4434,132.031 -83.4629,193.83 -23.9624,40.2198 -39.2711,67.0503 -63.5723,97.1816 -7.362,9.1282 -16.0833,17.0989 -24.6953,25.0586 -6.4806,5.9896 -13.5143,11.3512 -20.2578,17.043 -6.2065,5.2386 1.5604,-0.6671 -18.5937,15.7461 l -30.2676,24.6484 c 25.8871,-8.1596 33.7462,-10.0834 67.1953,-30.4141 10.5851,-6.4338 19.4025,-15.5043 28.0723,-24.3515 24.7635,-25.2701 45.8328,-52.0997 63.625,-82.6543 0,0 20.8241,-33.8657 29.9824,-51.4883 20.1061,-38.6887 38.5975,-78.1915 56.3418,-118.041 0.8377,7.7648 1.5644,15.5459 2.9238,23.2324 4.566,25.8152 11.971,51.4625 19.4531,76.5156 1.7862,5.9807 3.5554,11.7703 5.3301,17.4825 -22.316,-0.6218 -45.0552,-1.1133 -67.0664,-1.3809 -3.6474,5.9266 -6.1746,11.5936 -9.5781,16.8652 27.2689,-0.1849 54.5435,0.3665 81.8105,0.795 4.9748,15.3435 10.1587,30.3945 16.0528,46.4863 1.5331,4.1858 3.1276,8.3492 4.7382,12.5058 l -36.0683,16.043 c 16.1198,15.3941 33.2191,29.9504 46.7773,47.7891 6.2603,7.7869 12.6346,15.7831 17.75,24.3847 0.7791,1.3101 0.7404,4.2703 2.2383,3.9883 14.0987,-2.654 27.5195,-8.1198 41.2793,-12.1797 -0.3075,-4.7636 -2.7217,-9.6247 -4.5273,-13.9589 -8.1372,-19.5323 -16.9928,-38.7819 -25.0996,-58.3282 -4.5703,-11.0945 -9.4123,-22.0807 -13.711,-33.2832 -10.1496,-26.45 -18.8944,-52.6568 -26.6445,-79.9219 -6.9766,-24.5441 -13.7285,-51.2754 -17.3223,-76.6777 -1.3803,-9.7562 -1.6667,-19.6371 -2.5,-29.4551 0.3785,-21.1409 -0.018,-21.1388 1.6074,-40.248 0.3977,-4.6749 1.1604,-9.3175 1.4571,-14 0.2011,-3.1798 3.2202,-9.6446 0.035,-9.5586 z m 495.484,217.208 9.86056,0 0,-78.0384 93.2808,78.0384 8.48008,0 0,-88.9689 -9.86055,0 0,77.9113 -93.0836,-77.9113 -8.67729,0 0,88.9689 z m -160.755,0 10.255,0 18.1434,-25.9281 77.1096,0 18.1434,25.9281 10.255,0 -62.3187,-89.4773 -9.07171,0 -62.5159,89.4773 z m 31.9482,-31.5204 35.1036,-49.6955 34.9064,49.6955 -70.01,0 z m -70.1055,31.5204 9.86056,0 0,-88.9689 -9.86056,0 0,88.9689 z m -146.593,0 9.86054,0 0,-41.5612 48.3167,0 44.9641,41.5612 11.4382,0 -45.1613,-42.0696 c 22.0876,-1.65228 34.1175,-10.8034 34.1175,-23.3861 0,-13.9808 -15.1853,-23.5132 -42.2032,-23.5132 l -61.3326,0 0,88.9689 z m 9.86054,-47.4077 0,-35.7146 50.6833,0 c 20.9044,0 33.1315,6.48202 33.1315,17.7938 0,11.566 -12.2271,17.9209 -33.1315,17.9209 l -50.6833,0 z m -162.776,47.4077 43.1892,0 c 44.1753,0 74.3486,-18.048 74.3486,-44.4844 0,-26.4365 -30.1733,-44.4844 -74.3486,-44.4844 l -43.1892,0 0,88.9689 z m 9.86055,-5.84653 0,-77.2758 31.751,0 c 41.0199,0 65.8685,15.506 65.8685,38.6379 0,23.1319 -24.8486,38.6379 -65.8685,38.6379 l -31.751,0 z"
         id="path22"
         style="fill:#666666;fill-opacity:1"
         inkscape:connector-curvature="0" />
    </g>
  </g>
</svg>
